<svg aria-hidden="true" style="position:absolute;width:0;height:0;overflow:hidden" xmlns="http://www.w3.org/2000/svg"><defs><symbol id="icon-untitled" viewBox="0 0 48 32"><path d="M41.648 18.935c-.261-1.955-.429-3.7-.506-5.235-.033-1.56.026-2.91.178-4.05L3.38 31.555l-1.795-3.109 37.94-21.905c-1.092-.488-2.305-1.137-3.639-1.945-1.291-.834-2.704-1.827-4.238-2.981L33.926.3c4.813 2.024 9.215 3.036 13.206 3.035l.769 1.332c-2.025 3.406-3.35 7.724-3.975 12.954l-2.278 1.315z"/></symbol><symbol id="icon-facebook" viewBox="0 0 32 32"><path d="M19.52 4.64h.96v3.6h-1.2c-.48 0-.96 0-1.2.24s-.24.48-.24 1.04v1.28h2.64v3.04h-2.64v13.2h-4.08V13.76H11.6v-3.04h2.16V9.68c0-1.76.24-3.04.72-3.6.72-1.04 2.16-1.52 4.32-1.52.24.08.48.08.72.08z"/></symbol><symbol id="icon-instagram" viewBox="0 0 32 32"><path d="M30.837 9.882c-.018-1.253-.251-2.497-.695-3.669a7.6404 7.6404 0 0 0-4.367-4.36 10.97 10.97 0 0 0-3.625-.695c-1.596-.071-2.101-.091-6.151-.091s-4.569 0-6.153.091c-1.239.026-2.465.26-3.624.695-2.005.775-3.591 2.358-4.367 4.36a10.8337 10.8337 0 0 0-.695 3.618c-.071 1.595-.093 2.1-.093 6.143s0 4.56.093 6.143c.025 1.239.259 2.46.695 3.621.778 2 2.362 3.583 4.369 4.358 1.154.45 2.38.705 3.624.745 1.597.071 2.103.093 6.153.093s4.569 0 6.153-.093c1.239-.025 2.465-.258 3.626-.694a7.649 7.649 0 0 0 4.367-4.36c.436-1.159.67-2.381.695-3.621.071-1.593.093-2.098.093-6.143-.003-4.043-.003-4.557-.096-6.141zM15.988 23.62c-4.236 0-7.667-3.426-7.667-7.655s3.431-7.655 7.667-7.655c4.233 0 7.667 3.426 7.667 7.655s-3.435 7.655-7.667 7.655zm7.973-13.808c-.99 0-1.788-.798-1.788-1.785s.798-1.785 1.788-1.785c.987 0 1.786.798 1.786 1.785s-.799 1.785-1.786 1.785z"/></symbol><symbol id="icon-burger" viewBox="0 0 47 32"><path d="M8.742 5.188h36.591M8.742 24.582h36.591M19.965 14.885h25.368"/></symbol><symbol id="icon-x" viewBox="0 0 32 32"><path stroke-linejoin="round" stroke-linecap="round" stroke-width="1.7778" d="M24 8 8 24M8 8l16 16"/></symbol><symbol id="icon-youtube" viewBox="0 0 32 32"><path d="M24.24 6c-1.36-.08-4.16-.16-8.4-.16h-.56c-4.08 0-6.8.08-8.16.24-1.84.16-3.12.64-3.84 1.28-.64.56-1.12 1.6-1.28 2.96-.08.88-.16 2.72-.16 5.52v.4c0 2.64.08 4.48.24 5.36.24 1.28.64 2.24 1.44 2.8.8.64 2.16 1.04 4.08 1.2 1.36.08 4.16.16 8.4.16h.56c4.08 0 6.8-.08 8.16-.24 1.84-.16 3.12-.64 3.84-1.28.64-.56 1.12-1.6 1.28-2.96.08-.88.16-2.72.16-5.52v-.4c0-2.64-.08-4.48-.24-5.36-.24-1.28-.64-2.24-1.44-2.8-.8-.64-2.16-1.04-4.08-1.2zm-3.12 9.84-8.8 5.28V10.56l8.8 5.28z"/></symbol></defs></svg>